<svg width="27" height="29" viewBox="0 0 27 29" fill="none" xmlns="http://www.w3.org/2000/svg">
<g clip-path="url(#clip0_271_40)">
<g opacity="0.7">
<path d="M26.3573 17.5961C25.3199 19.29 23.8803 20.7257 22.17 21.772C20.4597 22.8183 18.5332 23.4419 16.5665 23.5857C14.5997 23.7295 12.6555 23.389 10.9115 22.5953C9.16738 21.8016 7.67903 20.58 6.58239 19.0421C5.48575 17.5042 4.81577 15.699 4.63367 13.7915C4.45158 11.884 4.76316 9.93491 5.53995 8.12239C6.31675 6.30987 7.534 4.69166 9.08049 3.4156C10.627 2.13954 12.4534 1.24632 14.3929 0.817536C13.2019 2.76908 12.591 4.98452 12.6334 7.19865C12.6758 9.41278 13.3697 11.5318 14.632 13.3021C15.8944 15.0723 17.6716 16.4188 19.7511 17.1803C21.8306 17.9419 24.1242 18.0862 26.3573 17.5961Z" fill="#424242"/>
</g>
</g>
<defs>
<clipPath id="clip0_271_40">
<rect width="16.9615" height="22.6153" fill="white" transform="translate(0 9.84766) rotate(-35.4918)"/>
</clipPath>
</defs>
</svg>
