<svg xmlns="http://www.w3.org/2000/svg" viewBox="0 0 1080 1080"><defs><style>.cls-1{fill:#f7f3f0;}.cls-2{fill:#333;}</style></defs><g id="Layer_2" data-name="Layer 2"><g id="Camada_1" data-name="Camada 1"><rect class="cls-1" width="1080" height="1080" rx="60"/><path class="cls-2" d="M800.23,794.39a6.88,6.88,0,0,1-6.88-6.88V496a6.88,6.88,0,0,0-6.88-6.89H596.82a6.88,6.88,0,0,1-6.88-6.88V183.86H487.1V896.14H589.94V597.76a6.88,6.88,0,0,1,6.88-6.88h87.89a6.88,6.88,0,0,1,6.88,6.88V845.27a50.87,50.87,0,0,0,50.88,50.87H896.84a6.88,6.88,0,0,0,6.88-6.88v-88a6.88,6.88,0,0,0-6.88-6.88Z"/><path class="cls-2" d="M793.35,285.61V190.74a6.88,6.88,0,0,0-6.88-6.88h-88a6.89,6.89,0,0,0-6.89,6.88V380.48a6.9,6.9,0,0,0,6.89,6.89h88a6.89,6.89,0,0,0,6.88-6.89Z"/><path class="cls-2" d="M283.59,590.88V787.51a6.88,6.88,0,0,1-6.89,6.88H183.16a6.88,6.88,0,0,0-6.88,6.88v88a6.88,6.88,0,0,0,6.88,6.88H334.47a50.87,50.87,0,0,0,50.87-50.87V496a6.88,6.88,0,0,0-6.88-6.89h-88a6.88,6.88,0,0,0-6.88,6.89Z"/></g></g></svg>