<svg width="24" height="24" viewBox="0 0 24 24" fill="none" xmlns="http://www.w3.org/2000/svg">
<g opacity="0.7">
<path d="M17.2526 12.9307C17.7234 10.0302 15.7537 7.29715 12.8532 6.82633C9.95269 6.35551 7.21968 8.32517 6.74886 11.2257C6.27804 14.1262 8.2477 16.8592 11.1482 17.33C14.0487 17.8009 16.7817 15.8312 17.2526 12.9307Z" fill="#424242"/>
<path d="M12.8539 0.853197C12.8539 0.381989 12.4719 0 12.0007 0C11.5295 0 11.1475 0.381989 11.1475 0.853197V4.64922C11.1475 5.12043 11.5295 5.50242 12.0007 5.50242C12.4719 5.50242 12.8539 5.12043 12.8539 4.64922V0.853197Z" fill="#424242"/>
<path d="M12.8539 19.3508C12.8539 18.8795 12.4719 18.4976 12.0007 18.4976C11.5295 18.4976 11.1475 18.8795 11.1475 19.3508V23.1468C11.1475 23.618 11.5295 24 12.0007 24C12.4719 24 12.8539 23.618 12.8539 23.1468V19.3508Z" fill="#424242"/>
<path d="M23.1468 12.9308C23.618 12.9308 24 12.5488 24 12.0776C24 11.6064 23.618 11.2244 23.1468 11.2244H19.3508C18.8796 11.2244 18.4976 11.6064 18.4976 12.0776C18.4976 12.5488 18.8796 12.9308 19.3508 12.9308H23.1468Z" fill="#424242"/>
<path d="M4.64912 12.9308C5.12033 12.9308 5.50232 12.5488 5.50232 12.0776C5.50232 11.6064 5.12033 11.2244 4.64912 11.2244H0.853097C0.38189 11.2244 -9.91821e-05 11.6064 -9.91821e-05 12.0776C-9.91821e-05 12.5488 0.38189 12.9308 0.853097 12.9308H4.64912Z" fill="#424242"/>
<path d="M20.4854 4.79892C20.8186 4.46572 20.8186 3.92551 20.4854 3.59232C20.1522 3.25912 19.612 3.25912 19.2788 3.59231L16.5946 6.27651C16.2614 6.6097 16.2614 7.14992 16.5946 7.48311C16.9278 7.81631 17.468 7.81631 17.8012 7.48311L20.4854 4.79892Z" fill="#424242"/>
<path d="M7.40482 17.8788C7.73801 17.5456 7.73801 17.0053 7.40482 16.6721C7.07162 16.339 6.53141 16.339 6.19821 16.6721L3.51402 19.3563C3.18082 19.6895 3.18082 20.2298 3.51402 20.563C3.84721 20.8961 4.38742 20.8961 4.72062 20.563L7.40482 17.8788Z" fill="#424242"/>
<path d="M19.2784 20.5623C19.6115 20.8955 20.1518 20.8955 20.485 20.5623C20.8181 20.2291 20.8181 19.6889 20.485 19.3557L17.8008 16.6715C17.4676 16.3383 16.9273 16.3383 16.5942 16.6715C16.261 17.0047 16.261 17.5449 16.5942 17.8781L19.2784 20.5623Z" fill="#424242"/>
<path d="M6.19937 7.48294C6.53257 7.81613 7.07278 7.81613 7.40598 7.48294C7.73917 7.14975 7.73917 6.60953 7.40598 6.27634L4.72178 3.59214C4.38859 3.25895 3.84837 3.25895 3.51518 3.59214C3.18198 3.92534 3.18198 4.46555 3.51518 4.79874L6.19937 7.48294Z" fill="#424242"/>
</g>
</svg>
