<svg xmlns="http://www.w3.org/2000/svg" viewBox="0 0 727.44 712.29"><defs><style>.cls-1{fill:#333;}</style></defs><g id="Layer_2" data-name="Layer 2"><g id="Camada_1" data-name="Camada 1"><path class="cls-1" d="M624,610.53a6.88,6.88,0,0,1-6.89-6.88V312.15a6.88,6.88,0,0,0-6.88-6.88H420.55a6.89,6.89,0,0,1-6.89-6.89V0H310.82V712.29H413.66V413.91a6.88,6.88,0,0,1,6.89-6.89h87.88a6.89,6.89,0,0,1,6.89,6.89v247.5a50.88,50.88,0,0,0,50.87,50.88H720.56a6.88,6.88,0,0,0,6.88-6.88v-88a6.89,6.89,0,0,0-6.88-6.89Z"/><path class="cls-1" d="M617.07,101.76V6.88A6.88,6.88,0,0,0,610.19,0h-88a6.88,6.88,0,0,0-6.88,6.88V196.63a6.88,6.88,0,0,0,6.88,6.88h88a6.88,6.88,0,0,0,6.88-6.88Z"/><path class="cls-1" d="M107.31,407V603.65a6.88,6.88,0,0,1-6.88,6.88H6.88A6.89,6.89,0,0,0,0,617.42v88a6.88,6.88,0,0,0,6.88,6.88H158.19a50.88,50.88,0,0,0,50.88-50.88V312.15a6.89,6.89,0,0,0-6.89-6.88h-88a6.88,6.88,0,0,0-6.88,6.88Z"/></g></g></svg>